<svg width="303" height="41" viewBox="0 0 303 41" fill="none" xmlns="http://www.w3.org/2000/svg">
<path d="M0.8 30V1.2H12.96C13.24 1.2 13.6133 1.21333 14.08 1.24C14.56 1.25333 14.9867 1.29333 15.36 1.36C17.08 1.62667 18.4867 2.19333 19.58 3.06C20.6867 3.92666 21.5 5.02 22.02 6.34C22.54 7.64667 22.8 9.10667 22.8 10.72C22.8 12.3333 22.5333 13.8 22 15.12C21.48 16.4267 20.6667 17.5133 19.56 18.38C18.4667 19.2467 17.0667 19.8133 15.36 20.08C14.9867 20.1333 14.56 20.1733 14.08 20.2C13.6 20.2267 13.2267 20.24 12.96 20.24H6.24V30H0.8ZM6.24 15.16H12.72C13 15.16 13.3067 15.1467 13.64 15.12C13.9733 15.0933 14.28 15.04 14.56 14.96C15.2933 14.76 15.86 14.4267 16.26 13.96C16.66 13.48 16.9333 12.9533 17.08 12.38C17.24 11.7933 17.32 11.24 17.32 10.72C17.32 10.2 17.24 9.65333 17.08 9.08C16.9333 8.49333 16.66 7.96667 16.26 7.5C15.86 7.02 15.2933 6.68 14.56 6.48C14.28 6.4 13.9733 6.34667 13.64 6.32C13.3067 6.29333 13 6.28 12.72 6.28H6.24V15.16ZM36.465 30.6C34.2517 30.6 32.2983 30.1267 30.605 29.18C28.925 28.22 27.605 26.9067 26.645 25.24C25.6983 23.56 25.225 21.64 25.225 19.48C25.225 17.12 25.6917 15.0667 26.625 13.32C27.5583 11.5733 28.845 10.22 30.485 9.26C32.125 8.28667 34.0117 7.8 36.145 7.8C38.4117 7.8 40.3383 8.33333 41.925 9.4C43.5117 10.4667 44.685 11.9667 45.445 13.9C46.205 15.8333 46.4717 18.1067 46.245 20.72H40.865V18.72C40.865 16.52 40.5117 14.94 39.805 13.98C39.1117 13.0067 37.9717 12.52 36.385 12.52C34.5317 12.52 33.165 13.0867 32.285 14.22C31.4183 15.34 30.985 17 30.985 19.2C30.985 21.2133 31.4183 22.7733 32.285 23.88C33.165 24.9733 34.4517 25.52 36.145 25.52C37.2117 25.52 38.125 25.2867 38.885 24.82C39.645 24.3533 40.225 23.68 40.625 22.8L46.065 24.36C45.2517 26.3333 43.965 27.8667 42.205 28.96C40.4583 30.0533 38.545 30.6 36.465 30.6ZM29.305 20.72V16.68H43.625V20.72H29.305ZM60.3009 30.6C58.1409 30.6 56.2543 30.1133 54.6409 29.14C53.0276 28.1667 51.7743 26.8267 50.8809 25.12C50.0009 23.4 49.5609 21.4267 49.5609 19.2C49.5609 16.9333 50.0143 14.9467 50.9209 13.24C51.8276 11.5333 53.0876 10.2 54.7009 9.24C56.3143 8.28 58.1809 7.8 60.3009 7.8C62.4743 7.8 64.3676 8.28667 65.9809 9.26C67.5943 10.2333 68.8476 11.58 69.7409 13.3C70.6343 15.0067 71.0809 16.9733 71.0809 19.2C71.0809 21.44 70.6276 23.42 69.7209 25.14C68.8276 26.8467 67.5743 28.1867 65.9609 29.16C64.3476 30.12 62.4609 30.6 60.3009 30.6ZM60.3009 26.08C62.2209 26.08 63.6476 25.44 64.5809 24.16C65.5143 22.88 65.9809 21.2267 65.9809 19.2C65.9809 17.1067 65.5076 15.44 64.5609 14.2C63.6143 12.9467 62.1943 12.32 60.3009 12.32C59.0076 12.32 57.9409 12.6133 57.1009 13.2C56.2743 13.7733 55.6609 14.58 55.2609 15.62C54.8609 16.6467 54.6609 17.84 54.6609 19.2C54.6609 21.2933 55.1343 22.9667 56.0809 24.22C57.0409 25.46 58.4476 26.08 60.3009 26.08ZM85.8675 30.6C83.7608 30.6 81.9942 30.1 80.5675 29.1C79.1408 28.1 78.0675 26.74 77.3475 25.02C76.6275 23.2867 76.2675 21.3467 76.2675 19.2C76.2675 17.0267 76.6275 15.08 77.3475 13.36C78.0675 11.64 79.1208 10.2867 80.5075 9.3C81.9075 8.3 83.6342 7.8 85.6875 7.8C87.7275 7.8 89.4942 8.3 90.9875 9.3C92.4942 10.2867 93.6608 11.64 94.4875 13.36C95.3142 15.0667 95.7275 17.0133 95.7275 19.2C95.7275 21.36 95.3208 23.3 94.5075 25.02C93.6942 26.74 92.5475 28.1 91.0675 29.1C89.5875 30.1 87.8542 30.6 85.8675 30.6ZM75.4475 39.6V8.4H79.7075V23.56H80.3075V39.6H75.4475ZM85.1275 26.28C86.3808 26.28 87.4142 25.9667 88.2275 25.34C89.0408 24.7133 89.6408 23.8667 90.0275 22.8C90.4275 21.72 90.6275 20.52 90.6275 19.2C90.6275 17.8933 90.4275 16.7067 90.0275 15.64C89.6275 14.56 89.0075 13.7067 88.1675 13.08C87.3275 12.44 86.2608 12.12 84.9675 12.12C83.7408 12.12 82.7408 12.42 81.9675 13.02C81.1942 13.6067 80.6208 14.4333 80.2475 15.5C79.8875 16.5533 79.7075 17.7867 79.7075 19.2C79.7075 20.6 79.8875 21.8333 80.2475 22.9C80.6208 23.9667 81.2008 24.8 81.9875 25.4C82.7875 25.9867 83.8342 26.28 85.1275 26.28ZM100.536 30V0.599999H105.356V30H100.536ZM120.927 30.6C118.78 30.6 116.894 30.1333 115.267 29.2C113.654 28.2533 112.394 26.94 111.487 25.26C110.594 23.5667 110.147 21.6067 110.147 19.38C110.147 17.02 110.587 14.9733 111.467 13.24C112.36 11.5067 113.6 10.1667 115.187 9.22C116.774 8.27333 118.62 7.8 120.727 7.8C122.927 7.8 124.8 8.31333 126.347 9.34C127.894 10.3533 129.047 11.8 129.807 13.68C130.58 15.56 130.887 17.7933 130.727 20.38H126.547V18.86C126.52 16.3533 126.04 14.5 125.107 13.3C124.187 12.1 122.78 11.5 120.887 11.5C118.794 11.5 117.22 12.16 116.167 13.48C115.114 14.8 114.587 16.7067 114.587 19.2C114.587 21.5733 115.114 23.4133 116.167 24.72C117.22 26.0133 118.74 26.66 120.727 26.66C122.034 26.66 123.16 26.3667 124.107 25.78C125.067 25.18 125.814 24.3267 126.347 23.22L130.447 24.52C129.607 26.4533 128.334 27.9533 126.627 29.02C124.92 30.0733 123.02 30.6 120.927 30.6ZM113.227 20.38V17.12H128.647V20.38H113.227ZM144.594 30.6C142.434 30.6 140.561 30.1133 138.974 29.14C137.387 28.1667 136.161 26.8267 135.294 25.12C134.441 23.4 134.014 21.42 134.014 19.18C134.014 16.9267 134.454 14.9467 135.334 13.24C136.214 11.52 137.447 10.1867 139.034 9.24C140.621 8.28 142.474 7.8 144.594 7.8C146.754 7.8 148.627 8.28667 150.214 9.26C151.801 10.2333 153.027 11.5733 153.894 13.28C154.761 14.9867 155.194 16.9533 155.194 19.18C155.194 21.4333 154.754 23.42 153.874 25.14C153.007 26.8467 151.781 28.1867 150.194 29.16C148.607 30.12 146.741 30.6 144.594 30.6ZM144.594 26.66C146.661 26.66 148.201 25.9667 149.214 24.58C150.241 23.18 150.754 21.38 150.754 19.18C150.754 16.9267 150.234 15.1267 149.194 13.78C148.167 12.42 146.634 11.74 144.594 11.74C143.194 11.74 142.041 12.06 141.134 12.7C140.227 13.3267 139.554 14.2 139.114 15.32C138.674 16.4267 138.454 17.7133 138.454 19.18C138.454 21.4467 138.974 23.26 140.014 24.62C141.054 25.98 142.581 26.66 144.594 26.66ZM161.569 30V7.64C161.569 7.09333 161.589 6.51333 161.629 5.9C161.669 5.27333 161.782 4.66 161.969 4.06C162.169 3.44667 162.496 2.88667 162.949 2.38C163.496 1.78 164.096 1.35333 164.749 1.1C165.402 0.846665 166.049 0.699998 166.689 0.659997C167.342 0.619999 167.942 0.599999 168.489 0.599999H171.209V4.04H168.689C167.702 4.04 166.962 4.28667 166.469 4.78C165.989 5.26 165.749 5.94667 165.749 6.84V30H161.569ZM157.989 11.76V8.4H171.209V11.76H157.989ZM183.134 40.2C182 40.2 180.894 40.0267 179.814 39.68C178.734 39.3333 177.74 38.8067 176.834 38.1C175.94 37.4067 175.194 36.5267 174.594 35.46L177.854 33.74C178.387 34.7933 179.14 35.56 180.114 36.04C181.1 36.52 182.114 36.76 183.154 36.76C184.527 36.76 185.667 36.5067 186.574 36C187.48 35.5067 188.147 34.7667 188.574 33.78C189.014 32.7933 189.227 31.5667 189.214 30.1V24.2H189.634V8.4H192.794V30.14C192.794 30.7267 192.774 31.2933 192.734 31.84C192.707 32.3867 192.64 32.9267 192.534 33.46C192.254 34.9933 191.7 36.2533 190.874 37.24C190.047 38.24 188.98 38.98 187.674 39.46C186.367 39.9533 184.854 40.2 183.134 40.2ZM182.874 30.6C180.86 30.6 179.134 30.1 177.694 29.1C176.254 28.0867 175.14 26.72 174.354 25C173.58 23.28 173.194 21.34 173.194 19.18C173.194 17.02 173.58 15.08 174.354 13.36C175.14 11.64 176.254 10.2867 177.694 9.3C179.134 8.3 180.854 7.8 182.854 7.8C184.894 7.8 186.607 8.29333 187.994 9.28C189.38 10.2667 190.427 11.62 191.134 13.34C191.854 15.06 192.214 17.0067 192.214 19.18C192.214 21.3267 191.854 23.2667 191.134 25C190.427 26.72 189.38 28.0867 187.994 29.1C186.607 30.1 184.9 30.6 182.874 30.6ZM183.314 27.34C184.767 27.34 185.96 26.9933 186.894 26.3C187.827 25.5933 188.514 24.6267 188.954 23.4C189.407 22.16 189.634 20.7533 189.634 19.18C189.634 17.58 189.407 16.1733 188.954 14.96C188.514 13.7333 187.834 12.78 186.914 12.1C185.994 11.4067 184.827 11.06 183.414 11.06C181.947 11.06 180.734 11.42 179.774 12.14C178.827 12.86 178.12 13.8333 177.654 15.06C177.2 16.2867 176.974 17.66 176.974 19.18C176.974 20.7133 177.207 22.1 177.674 23.34C178.14 24.5667 178.84 25.54 179.774 26.26C180.72 26.98 181.9 27.34 183.314 27.34ZM198.378 30V8.4H201.558V13.62L201.038 12.94C201.291 12.2733 201.618 11.66 202.018 11.1C202.431 10.54 202.891 10.08 203.398 9.72C203.958 9.26666 204.591 8.92 205.298 8.68C206.005 8.44 206.725 8.3 207.458 8.26C208.191 8.20667 208.878 8.25333 209.518 8.4V11.74C208.771 11.54 207.951 11.4867 207.058 11.58C206.165 11.6733 205.338 12 204.578 12.56C203.885 13.0533 203.345 13.6533 202.958 14.36C202.585 15.0667 202.325 15.8333 202.178 16.66C202.031 17.4733 201.958 18.3067 201.958 19.16V30H198.378ZM222.109 30.6C219.963 30.6 218.109 30.1133 216.549 29.14C215.003 28.1667 213.809 26.82 212.969 25.1C212.129 23.38 211.709 21.4067 211.709 19.18C211.709 16.9133 212.136 14.9267 212.989 13.22C213.843 11.5133 215.049 10.1867 216.609 9.24C218.169 8.28 220.003 7.8 222.109 7.8C224.269 7.8 226.129 8.28667 227.689 9.26C229.249 10.22 230.443 11.56 231.269 13.28C232.109 14.9867 232.529 16.9533 232.529 19.18C232.529 21.4333 232.109 23.42 231.269 25.14C230.429 26.8467 229.229 28.1867 227.669 29.16C226.109 30.12 224.256 30.6 222.109 30.6ZM222.109 27.22C224.349 27.22 226.016 26.4733 227.109 24.98C228.203 23.4867 228.749 21.5533 228.749 19.18C228.749 16.74 228.196 14.8 227.089 13.36C225.983 11.9067 224.323 11.18 222.109 11.18C220.603 11.18 219.363 11.52 218.389 12.2C217.416 12.88 216.689 13.82 216.209 15.02C215.729 16.22 215.489 17.6067 215.489 19.18C215.489 21.6067 216.049 23.5533 217.169 25.02C218.289 26.4867 219.936 27.22 222.109 27.22ZM241.533 30L234.933 8.38L237.873 8.4L242.993 25.18L248.133 8.4H250.813L255.953 25.18L261.113 8.4H264.033L257.433 30H254.873L249.473 12.8L244.093 30H241.533ZM279.396 30C278.183 30.2533 276.983 30.3533 275.796 30.3C274.623 30.2467 273.569 29.9933 272.636 29.54C271.716 29.0867 271.016 28.38 270.536 27.42C270.149 26.62 269.936 25.8133 269.896 25C269.869 24.1733 269.856 23.2333 269.856 22.18V2.4H272.776V22.06C272.776 22.9667 272.783 23.7267 272.796 24.34C272.823 24.94 272.963 25.4733 273.216 25.94C273.696 26.8333 274.456 27.3667 275.496 27.54C276.549 27.7133 277.849 27.6733 279.396 27.42V30ZM265.236 10.92V8.4H279.396V10.92H265.236ZM299.252 30V18.98C299.252 17.78 299.138 16.68 298.912 15.68C298.685 14.6667 298.318 13.7867 297.812 13.04C297.318 12.28 296.672 11.6933 295.872 11.28C295.085 10.8667 294.125 10.66 292.992 10.66C291.952 10.66 291.032 10.84 290.232 11.2C289.445 11.56 288.778 12.08 288.232 12.76C287.698 13.4267 287.292 14.24 287.012 15.2C286.732 16.16 286.592 17.2533 286.592 18.48L284.512 18.02C284.512 15.8067 284.898 13.9467 285.672 12.44C286.445 10.9333 287.512 9.79333 288.872 9.02C290.232 8.24667 291.792 7.86 293.552 7.86C294.845 7.86 295.972 8.06 296.932 8.46C297.905 8.86 298.725 9.4 299.392 10.08C300.072 10.76 300.618 11.54 301.032 12.42C301.445 13.2867 301.745 14.2133 301.932 15.2C302.118 16.1733 302.212 17.1467 302.212 18.12V30H299.252ZM283.632 30V1.2H286.292V17.46H286.592V30H283.632Z" fill="black"/>
</svg>
